<svg width="446" height="301" viewBox="0 0 446 301" fill="none" xmlns="http://www.w3.org/2000/svg">
<g clip-path="url(#clip0_1_2)">
<path d="M443.089 248.602H222.437C221.666 248.601 220.926 248.294 220.38 247.748C219.834 247.202 219.527 246.462 219.526 245.691V2.91103C219.527 2.13924 219.834 1.39933 220.38 0.853595C220.926 0.307863 221.666 0.000882944 222.437 0H443.089C443.861 0.000882944 444.601 0.307863 445.146 0.853595C445.692 1.39933 445.999 2.13924 446 2.91103V245.691C445.999 246.462 445.692 247.202 445.146 247.748C444.601 248.294 443.861 248.601 443.089 248.602V248.602ZM222.437 1.16441C221.974 1.16492 221.53 1.3491 221.203 1.67654C220.875 2.00398 220.691 2.44795 220.691 2.91103V245.691C220.691 246.154 220.875 246.598 221.203 246.925C221.53 247.252 221.974 247.437 222.437 247.437H443.089C443.552 247.437 443.996 247.252 444.323 246.925C444.651 246.598 444.835 246.154 444.836 245.691V2.91103C444.835 2.44795 444.651 2.00398 444.323 1.67654C443.996 1.3491 443.552 1.16492 443.089 1.16441H222.437Z" fill="#3F3D56"/>
<path d="M317.626 92.5706H262.9C262.128 92.5697 261.388 92.2627 260.842 91.717C260.297 91.1713 259.99 90.4314 259.989 89.6596V34.9323C259.99 34.1605 260.297 33.4206 260.842 32.8749C261.388 32.3291 262.128 32.0222 262.9 32.0213H317.626C318.398 32.0222 319.138 32.3291 319.683 32.8749C320.229 33.4206 320.536 34.1605 320.537 34.9323V89.6596C320.536 90.4314 320.229 91.1713 319.683 91.717C319.138 92.2627 318.398 92.5697 317.626 92.5706V92.5706ZM262.9 33.1857C262.437 33.1862 261.993 33.3704 261.665 33.6978C261.338 34.0253 261.154 34.4692 261.153 34.9323V89.6596C261.154 90.1226 261.338 90.5666 261.665 90.8941C261.993 91.2215 262.437 91.4057 262.9 91.4062H317.626C318.089 91.4057 318.533 91.2215 318.861 90.8941C319.188 90.5666 319.372 90.1226 319.373 89.6596V34.9323C319.372 34.4692 319.188 34.0253 318.861 33.6978C318.533 33.3704 318.089 33.1862 317.626 33.1857H262.9Z" fill="#F2F2F2"/>
<path d="M301.907 99.2659H247.181C246.486 99.2652 245.82 98.9889 245.329 98.4977C244.838 98.0066 244.561 97.3406 244.561 96.646V41.9188C244.561 41.2241 244.838 40.5582 245.329 40.0671C245.82 39.5759 246.486 39.2996 247.181 39.2988H301.907C302.601 39.2996 303.267 39.5759 303.758 40.067C304.25 40.5582 304.526 41.2241 304.527 41.9188V96.646C304.526 97.3406 304.25 98.0066 303.758 98.4977C303.267 98.9889 302.601 99.2652 301.907 99.2659V99.2659Z" fill="#20C997"/>
<path d="M418.346 126.047H247.181C246.486 126.047 245.819 125.771 245.328 125.28C244.837 124.789 244.561 124.122 244.561 123.427C244.561 122.733 244.837 122.066 245.328 121.575C245.819 121.084 246.486 120.808 247.181 120.808H418.346C419.041 120.808 419.707 121.084 420.198 121.575C420.69 122.066 420.966 122.733 420.966 123.427C420.966 124.122 420.69 124.789 420.198 125.28C419.707 125.771 419.041 126.047 418.346 126.047V126.047Z" fill="#CCCCCC"/>
<path d="M377.01 144.096H247.181C246.486 144.096 245.819 143.82 245.328 143.328C244.837 142.837 244.561 142.171 244.561 141.476C244.561 140.781 244.837 140.115 245.328 139.623C245.819 139.132 246.486 138.856 247.181 138.856H377.01C377.705 138.856 378.371 139.132 378.862 139.623C379.354 140.115 379.63 140.781 379.63 141.476C379.63 142.171 379.354 142.837 378.862 143.328C378.371 143.82 377.705 144.096 377.01 144.096V144.096Z" fill="#CCCCCC"/>
<path d="M417.764 59.676H342.078C341.383 59.676 340.717 59.4 340.226 58.9086C339.734 58.4173 339.458 57.7509 339.458 57.0561C339.458 56.3612 339.734 55.6948 340.226 55.2035C340.717 54.7122 341.383 54.4362 342.078 54.4362H417.764C418.458 54.4362 419.125 54.7122 419.616 55.2035C420.107 55.6948 420.383 56.3612 420.383 57.0561C420.383 57.7509 420.107 58.4173 419.616 58.9086C419.125 59.4 418.458 59.676 417.764 59.676Z" fill="#CCCCCC"/>
<path d="M398.875 77.7244H342.078C341.383 77.7244 340.717 77.4483 340.226 76.957C339.734 76.4657 339.458 75.7993 339.458 75.1045C339.458 74.4096 339.734 73.7432 340.226 73.2519C340.717 72.7606 341.383 72.4845 342.078 72.4845H398.875C399.57 72.4845 400.236 72.7606 400.728 73.2519C401.219 73.7432 401.495 74.4096 401.495 75.1045C401.495 75.7993 401.219 76.4657 400.728 76.957C400.236 77.4483 399.57 77.7244 398.875 77.7244V77.7244Z" fill="#CCCCCC"/>
<path d="M418.346 162.144H247.181C246.486 162.144 245.819 161.868 245.328 161.377C244.837 160.885 244.561 160.219 244.561 159.524C244.561 158.829 244.837 158.163 245.328 157.672C245.819 157.18 246.486 156.904 247.181 156.904H418.346C419.041 156.904 419.707 157.18 420.198 157.672C420.69 158.163 420.966 158.829 420.966 159.524C420.966 160.219 420.69 160.885 420.198 161.377C419.707 161.868 419.041 162.144 418.346 162.144V162.144Z" fill="#CCCCCC"/>
<path d="M377.01 180.192H247.181C246.486 180.192 245.819 179.916 245.328 179.425C244.837 178.934 244.561 178.267 244.561 177.573C244.561 176.878 244.837 176.211 245.328 175.72C245.819 175.229 246.486 174.953 247.181 174.953H377.01C377.705 174.953 378.371 175.229 378.862 175.72C379.354 176.211 379.63 176.878 379.63 177.573C379.63 178.267 379.354 178.934 378.862 179.425C378.371 179.916 377.705 180.192 377.01 180.192V180.192Z" fill="#CCCCCC"/>
<path d="M418.346 198.241H247.181C246.486 198.241 245.819 197.965 245.328 197.473C244.837 196.982 244.561 196.316 244.561 195.621C244.561 194.926 244.837 194.26 245.328 193.768C245.819 193.277 246.486 193.001 247.181 193.001H418.346C419.041 193.001 419.707 193.277 420.198 193.768C420.69 194.26 420.966 194.926 420.966 195.621C420.966 196.316 420.69 196.982 420.198 197.473C419.707 197.965 419.041 198.241 418.346 198.241V198.241Z" fill="#CCCCCC"/>
<path d="M418.346 216.289H247.181C246.486 216.289 245.819 216.013 245.328 215.522C244.837 215.031 244.561 214.364 244.561 213.669C244.561 212.974 244.837 212.308 245.328 211.817C245.819 211.325 246.486 211.049 247.181 211.049H418.346C419.041 211.049 419.707 211.325 420.198 211.817C420.69 212.308 420.966 212.974 420.966 213.669C420.966 214.364 420.69 215.031 420.198 215.522C419.707 216.013 419.041 216.289 418.346 216.289V216.289Z" fill="#CCCCCC"/>
<path d="M280.324 226.077H155.153C154.381 226.076 153.641 225.769 153.095 225.223C152.549 224.677 152.242 223.937 152.242 223.166V145.732C152.242 144.961 152.549 144.221 153.095 143.675C153.641 143.129 154.381 142.822 155.153 142.821H280.324C281.096 142.822 281.836 143.129 282.382 143.675C282.928 144.221 283.234 144.961 283.235 145.732V223.166C283.234 223.937 282.928 224.677 282.382 225.223C281.836 225.769 281.096 226.076 280.324 226.077Z" fill="white"/>
<path d="M280.324 226.077H155.153C154.381 226.076 153.641 225.769 153.095 225.223C152.549 224.677 152.242 223.937 152.242 223.166V145.732C152.242 144.961 152.549 144.221 153.095 143.675C153.641 143.129 154.381 142.822 155.153 142.821H280.324C281.096 142.822 281.836 143.129 282.382 143.675C282.928 144.221 283.234 144.961 283.235 145.732V223.166C283.234 223.937 282.928 224.677 282.382 225.223C281.836 225.769 281.096 226.076 280.324 226.077ZM155.153 143.986C154.689 143.986 154.246 144.17 153.918 144.498C153.591 144.825 153.406 145.269 153.406 145.732V223.166C153.406 223.629 153.591 224.073 153.918 224.4C154.246 224.728 154.689 224.912 155.153 224.912H280.324C280.787 224.912 281.231 224.728 281.559 224.4C281.886 224.073 282.07 223.629 282.071 223.166V145.732C282.07 145.269 281.886 144.825 281.559 144.498C281.231 144.17 280.787 143.986 280.324 143.986H155.153Z" fill="#3F3D56"/>
<path d="M255.581 178.045H179.896C179.201 178.045 178.535 177.769 178.043 177.277C177.552 176.786 177.276 176.12 177.276 175.425C177.276 174.73 177.552 174.064 178.043 173.572C178.535 173.081 179.201 172.805 179.896 172.805H255.581C256.276 172.805 256.942 173.081 257.434 173.572C257.925 174.064 258.201 174.73 258.201 175.425C258.201 176.12 257.925 176.786 257.434 177.277C256.942 177.769 256.276 178.045 255.581 178.045V178.045Z" fill="#CCCCCC"/>
<path d="M255.581 196.093H179.896C179.201 196.093 178.535 195.817 178.043 195.326C177.552 194.834 177.276 194.168 177.276 193.473C177.276 192.778 177.552 192.112 178.043 191.621C178.535 191.129 179.201 190.853 179.896 190.853H255.581C256.276 190.853 256.942 191.129 257.434 191.621C257.925 192.112 258.201 192.778 258.201 193.473C258.201 194.168 257.925 194.834 257.434 195.326C256.942 195.817 256.276 196.093 255.581 196.093Z" fill="#CCCCCC"/>
<path d="M134.1 293.95H141.237L144.633 266.419L134.099 266.419L134.1 293.95Z" fill="#A0616A"/>
<path d="M132.279 291.62L146.336 291.619H146.336C148.712 291.619 150.99 292.563 152.67 294.243C154.35 295.923 155.294 298.201 155.294 300.577V300.868L132.28 300.869L132.279 291.62Z" fill="#2F2E41"/>
<path d="M78.5241 290.86L85.5814 291.927L93.0545 265.213L83.8028 263.639L78.5241 290.86Z" fill="#A0616A"/>
<path d="M77.0721 288.284L90.9707 290.385L90.9713 290.385C93.3203 290.74 95.432 292.014 96.8419 293.926C98.2518 295.838 98.8445 298.232 98.4895 300.581L98.446 300.869L75.6899 297.43L77.0721 288.284Z" fill="#2F2E41"/>
<path d="M100.531 157.512L108.456 159.588L107.929 172.437L107.864 195.831C108.644 196.371 109.243 197.135 109.58 198.023C109.917 198.91 109.976 199.879 109.751 200.801C109.525 201.724 109.025 202.556 108.316 203.187C107.607 203.819 106.723 204.22 105.781 204.339C104.839 204.457 103.884 204.287 103.041 203.85C102.198 203.413 101.507 202.731 101.06 201.893C100.613 201.056 100.432 200.102 100.538 199.159C100.645 198.216 101.036 197.327 101.659 196.611L99.2236 173.131L100.531 157.512Z" fill="#A0616A"/>
<path d="M99.1516 142.794C99.1954 141.553 99.5958 140.35 100.305 139.329C101.014 138.309 102.002 137.515 103.151 137.041C104.226 136.56 105.418 136.403 106.581 136.59C107.745 136.777 108.828 137.3 109.698 138.094C110.323 138.653 110.819 139.341 111.151 140.112C111.483 140.882 111.643 141.715 111.62 142.554C111.641 150.081 109.942 161.052 109.925 161.162L109.897 161.337L98.3136 165.238L99.1516 142.794Z" fill="#20C997"/>
<path d="M119.864 164.161L137.582 159.575L145.772 187.158L146.063 289.917L132.514 289.833L126.85 206.662L90.7542 283.513L76.1994 281.767L107.929 199.385C107.929 199.385 106.182 184.829 111.713 177.552L110.549 169.983L119.864 164.161Z" fill="#2F2E41"/>
<path d="M107.917 171.024C107.67 170.723 107.49 170.372 107.39 169.995C107.29 169.618 107.272 169.224 107.338 168.84L99.2564 144.594C98.8791 143.461 98.839 142.242 99.141 141.087C99.443 139.931 100.074 138.888 100.958 138.084L104.466 134.895L106.844 125.384L120.508 128.725L119.383 133.228L125.567 132.104L138.593 161.117L111.365 172L110.024 172.021C109.621 172.022 109.223 171.933 108.858 171.76C108.494 171.588 108.172 171.336 107.917 171.024V171.024Z" fill="#20C997"/>
<path d="M126.884 150.553L134.692 148.071L141.114 159.212L153.563 179.019C154.512 179.058 155.426 179.384 156.186 179.954C156.945 180.524 157.513 181.311 157.815 182.211C158.117 183.111 158.139 184.081 157.878 184.994C157.616 185.907 157.084 186.719 156.351 187.322C155.618 187.926 154.72 188.292 153.774 188.374C152.828 188.456 151.88 188.248 151.054 187.779C150.229 187.31 149.565 186.601 149.151 185.747C148.738 184.893 148.593 183.933 148.736 182.994L134.128 164.452L126.884 150.553Z" fill="#A0616A"/>
<path d="M117.851 138.851C117.224 137.779 116.92 136.548 116.974 135.307C117.028 134.065 117.438 132.866 118.156 131.852C118.808 130.871 119.732 130.101 120.815 129.638C121.898 129.174 123.092 129.037 124.252 129.242C125.079 129.38 125.866 129.697 126.559 130.17C127.251 130.644 127.832 131.263 128.26 131.984C132.301 138.334 136.73 148.515 136.774 148.617L136.844 148.779L129.139 158.268L117.851 138.851Z" fill="#20C997"/>
<path d="M116.954 123.615C122.95 123.615 127.811 118.754 127.811 112.757C127.811 106.761 122.95 101.9 116.954 101.9C110.957 101.9 106.096 106.761 106.096 112.757C106.096 118.754 110.957 123.615 116.954 123.615Z" fill="#A0616A"/>
<path d="M97.7666 108.178C103.543 108.178 108.225 103.495 108.225 97.719C108.225 91.9429 103.543 87.2605 97.7666 87.2605C91.9906 87.2605 87.3083 91.9429 87.3083 97.719C87.3083 103.495 91.9906 108.178 97.7666 108.178Z" fill="#2F2E41"/>
<path d="M88.7458 106.379C90.0994 107.358 91.6676 107.998 93.3193 108.246C94.971 108.494 96.658 108.343 98.2393 107.805C99.8206 107.267 101.25 106.359 102.408 105.155C103.566 103.952 104.419 102.488 104.896 100.888C104.716 102.322 104.24 103.704 103.499 104.945C102.757 106.186 101.767 107.261 100.59 108.1C99.4123 108.939 98.0738 109.525 96.6585 109.821C95.2433 110.116 93.7822 110.116 92.3673 109.818C90.9524 109.521 89.6146 108.933 88.4383 108.093C87.262 107.252 86.2727 106.177 85.5329 104.934C84.7931 103.692 84.3189 102.31 84.1403 100.875C83.9616 99.4407 84.0823 97.9845 84.4948 96.5988C84.2605 98.4605 84.5316 100.351 85.2795 102.072C86.0275 103.793 87.2247 105.281 88.7458 106.379V106.379Z" fill="#2F2E41"/>
<path d="M130.019 106.391C128.193 103.122 127.495 101.757 125.14 99.7692C123.059 98.0113 120.498 97.4951 118.433 99.1607C115.99 98.1051 113.271 97.8657 110.681 98.4782C108.091 99.0906 105.767 100.522 104.056 102.56C102.344 104.599 101.335 107.135 101.18 109.792C101.024 112.449 101.729 115.085 103.191 117.309C104.653 119.533 106.794 121.227 109.295 122.137C111.796 123.048 114.524 123.128 117.073 122.365C119.623 121.602 121.859 120.036 123.448 117.901C125.038 115.766 125.896 113.176 125.896 110.514C125.894 110.047 125.866 109.58 125.812 109.116C127.607 108.864 128.224 106.643 130.019 106.391Z" fill="#2F2E41"/>
<path d="M222.398 301H0.582195C0.427787 301 0.279703 300.939 0.17052 300.829C0.0613377 300.72 0 300.572 0 300.418C0 300.263 0.0613377 300.115 0.17052 300.006C0.279703 299.897 0.427787 299.836 0.582195 299.836H222.398C222.553 299.836 222.701 299.897 222.81 300.006C222.919 300.115 222.98 300.263 222.98 300.418C222.98 300.572 222.919 300.72 222.81 300.829C222.701 300.939 222.553 301 222.398 301Z" fill="#CCCCCC"/>
</g>
<defs>
<clipPath id="clip0_1_2">
<rect width="446" height="301" fill="white"/>
</clipPath>
</defs>
</svg>
